<svg width="64" height="64" viewBox="0 0 64 64" fill="none" xmlns="http://www.w3.org/2000/svg">
<path d="M54 31L47.5 21.5L45.5 16L32.5 12L17 20.5L13.5 37.5L23 48.5L34 54L54 41V31Z" fill="white"/>
<path d="M25.3792 35.6956L32.268 31.6762L39.7039 36.0529C38.2524 38.6097 35.584 40.184 32.6364 40.184C29.4656 40.184 26.7078 38.3529 25.3792 35.6956Z" fill="#084A86"/>
<path d="M54.9999 45.0296V45.2752L32 58.5616L9 45.2752L17.5971 40.251C20.5 45.5767 26.1607 49.1942 32.6364 49.1942C38.7995 49.1942 44.4155 45.9228 47.4747 40.6082L54.9999 45.0296Z" fill="#084A86"/>
<path d="M39.3131 27.5005L32.2234 31.6539H32.2122L25.368 35.6733C24.8321 34.5903 24.5306 33.3733 24.5306 32.0782C24.5306 30.5262 24.9661 29.0859 25.7253 27.8466C27.1544 25.5243 29.7112 23.9723 32.6365 23.9723C35.3272 23.9723 37.8059 25.2786 39.3131 27.5005Z" fill="url(#paint0_linear_3_20)"/>
<path d="M46.6485 23.1796L47.0839 22.9117C43.9242 17.9432 38.5204 14.9622 32.6364 14.9622C26.4063 14.9622 20.9466 18.3117 17.9544 23.2913C16.4136 25.8704 15.5204 28.8626 15.5204 32.0782C15.5204 35.0369 16.2684 37.8058 17.5859 40.2286L9 45.2752V18.7248L32 5.43838L54.7097 18.5573L46.6485 23.1796Z" fill="#6A9DD2"/>
<path d="M17.5859 40.2286C17.5859 40.2398 17.5971 40.2398 17.5971 40.251L9 45.2752L17.5859 40.2286Z" fill="url(#paint1_linear_3_20)"/>
<path d="M32.268 31.6762L25.3792 35.6956C25.3792 35.6845 25.368 35.6845 25.368 35.6733L32.2122 31.6539H32.2234L32.268 31.6762Z" fill="url(#paint2_linear_3_20)"/>
<path d="M17.5859 40.2286C17.5859 40.2398 17.5971 40.2398 17.5971 40.251L9 45.2752L17.5859 40.2286Z" fill="url(#paint3_linear_3_20)"/>
<path d="M32.268 31.6762L25.3792 35.6956C25.3792 35.6845 25.368 35.6845 25.368 35.6733L32.2122 31.6539H32.2234L32.268 31.6762Z" fill="url(#paint4_linear_3_20)"/>
<path d="M54.7098 18.5573L32.268 31.6762L32.2234 31.6539L39.3132 27.5005L46.6486 23.1796L54.7098 18.5573Z" fill="url(#paint5_linear_3_20)"/>
<path d="M54.7098 18.5573L32.268 31.6762L32.2234 31.6539L39.3132 27.5005L46.6486 23.1796L54.7098 18.5573Z" fill="url(#paint6_linear_3_20)"/>
<path d="M47.4747 40.5971V40.6082L39.7039 36.0529L47.4747 40.5971Z" fill="white"/>
<path d="M54.7097 18.5573L32.2679 31.6762L39.7039 36.0529L47.4747 40.6082L55 45.0296V18.7248L54.7097 18.5573ZM45.398 33.1165H43.165V35.3495H40.932V33.1165H38.699V30.8835H40.932V28.6505H43.165V30.8835H45.398V33.1165ZM53.2136 33.1165H50.9805V35.3495H48.7475V33.1165H46.5145V30.8835H48.7475V28.6505H50.9805V30.8835H53.2136V33.1165Z" fill="#085E9F"/>
<defs>
<linearGradient id="paint0_linear_3_20" x1="31.9219" y1="23.9723" x2="31.9219" y2="35.6733" gradientUnits="userSpaceOnUse">
<stop stop-color="#709CD4"/>
<stop offset="0.699" stop-color="#709CD4"/>
</linearGradient>
<linearGradient id="paint1_linear_3_20" x1="13.2985" y1="32.786" x2="13.2985" y2="50.5507" gradientUnits="userSpaceOnUse">
<stop stop-color="#709CD4"/>
<stop offset="0.699" stop-color="#709CD4"/>
</linearGradient>
<linearGradient id="paint2_linear_3_20" x1="28.818" y1="25.6929" x2="28.818" y2="39.9205" gradientUnits="userSpaceOnUse">
<stop stop-color="#709CD4"/>
<stop offset="0.699" stop-color="#709CD4"/>
</linearGradient>
<linearGradient id="paint3_linear_3_20" x1="13.2985" y1="30.5162" x2="13.2985" y2="45.2752" gradientUnits="userSpaceOnUse">
<stop stop-color="#709CD4"/>
<stop offset="0.699" stop-color="#709CD4"/>
</linearGradient>
<linearGradient id="paint4_linear_3_20" x1="28.818" y1="23.8752" x2="28.818" y2="35.6956" gradientUnits="userSpaceOnUse">
<stop stop-color="#709CD4"/>
<stop offset="0.699" stop-color="#709CD4"/>
</linearGradient>
<linearGradient id="paint5_linear_3_20" x1="43.4666" y1="11.5658" x2="43.4666" y2="59.5118" gradientUnits="userSpaceOnUse">
<stop stop-color="#709CD4"/>
<stop offset="0.699" stop-color="#709CD4"/>
</linearGradient>
<linearGradient id="paint6_linear_3_20" x1="43.4666" y1="5.43838" x2="43.4666" y2="45.2719" gradientUnits="userSpaceOnUse">
<stop stop-color="#709CD4"/>
<stop offset="0.699" stop-color="#709CD4"/>
</linearGradient>
</defs>
</svg>
