<svg width="64" height="64" viewBox="0 0 64 64" fill="none" xmlns="http://www.w3.org/2000/svg">
<g clip-path="url(#clip0_34_8)">
<path d="M19.3961 39.4323H10.8381C11.9713 43.4297 14.0739 47.0125 17.1521 50.179C22.0596 55.2266 27.9606 57.7472 34.8613 57.7472C36.2407 57.7472 37.5773 57.6415 38.8753 57.4401C44.073 56.6331 48.6239 54.2162 52.5231 50.179C55.6211 47.0136 57.7386 43.4297 58.8804 39.4323H19.3961ZM14.6772 27.4785H10.2066C10.0399 28.5041 9.93123 29.5389 9.8811 30.5775H59.8434C59.7924 29.5201 59.6809 28.4886 59.5159 27.4785M9.8811 33.4554C9.93163 34.5135 10.0425 35.5448 10.2066 36.5545H59.5168C59.6847 35.5289 59.7942 34.4941 59.8449 33.4554M58.8815 24.5999C57.7408 20.5915 55.6228 16.9919 52.5231 13.8033C48.6342 9.80391 44.0964 7.40432 38.9154 6.59711C37.5736 6.38845 36.2185 6.28421 34.8615 6.28529C27.9608 6.28529 22.0594 8.7922 17.1524 13.8035C14.073 16.9919 11.9691 20.5915 10.8368 24.5999" fill="#2C2255"/>
<path d="M8.39536 32.0174C8.39536 18.443 18.3078 7.16449 31.2031 5.18066C30.8833 5.16873 30.5617 5.15546 30.2386 5.15546C15.7679 5.15568 4.03589 17.1824 4.03589 32.0174C4.03589 46.853 15.7675 58.8788 30.2386 58.8788C30.5628 58.8788 30.8842 58.8662 31.2053 58.8541C18.3078 56.8705 8.39536 45.5917 8.39536 32.0174Z" fill="#F7941E"/>
<path d="M51.8649 30.5768C51.7832 29.53 51.6101 28.4928 51.3477 27.4778H18.3773C18.1147 28.4927 17.9415 29.5299 17.8597 30.5768H51.8649Z" fill="url(#paint0_linear_34_8)"/>
<path d="M51.8649 33.4552H17.8602C17.9416 34.5022 18.1147 35.5395 18.3774 36.5545H51.3482C51.6105 35.5394 51.7834 34.5021 51.8649 33.4552Z" fill="url(#paint1_linear_34_8)"/>
<path d="M34.8626 49.5671C41.7094 49.5671 47.6118 45.4183 50.3295 39.4324H19.3956C22.1136 45.4183 28.0155 49.5671 34.8626 49.5671Z" fill="url(#paint2_linear_34_8)"/>
<path d="M15.34 33.4554H59.8097C59.8333 32.9976 59.8464 32.5366 59.8464 32.0725C59.8464 31.5703 59.8287 31.0727 59.8009 30.5771H9.88107C9.85351 31.072 9.83557 31.5703 9.83557 32.0725C9.83557 32.5366 9.8487 32.9976 9.87232 33.4554H15.34ZM19.2959 24.5999H10.8364C10.5583 25.5372 10.3789 26.4987 10.2066 27.4785H59.3579C59.188 26.5064 58.9634 25.5452 58.6853 24.5999M56.1441 36.554H10.2061C10.3737 37.5331 10.5644 38.494 10.8379 39.4324H58.8489C59.1233 38.4869 59.3441 37.5258 59.5102 36.554H56.1441Z" fill="white"/>
</g>
<defs>
<linearGradient id="paint0_linear_34_8" x1="1718.12" y1="3403.56" x2="1718.12" y2="-466.82" gradientUnits="userSpaceOnUse">
<stop offset="0.3033" stop-color="#473788"/>
<stop offset="0.872" stop-color="#2C2255"/>
</linearGradient>
<linearGradient id="paint1_linear_34_8" x1="1718.06" y1="2812.07" x2="1718.06" y2="-1058.6" gradientUnits="userSpaceOnUse">
<stop offset="0.3033" stop-color="#473788"/>
<stop offset="0.872" stop-color="#2C2255"/>
</linearGradient>
<linearGradient id="paint2_linear_34_8" x1="1566.06" y1="2220.12" x2="1566.06" y2="-1650.18" gradientUnits="userSpaceOnUse">
<stop offset="0.3033" stop-color="#473788"/>
<stop offset="0.8631" stop-color="#2C2255"/>
</linearGradient>
<clipPath id="clip0_34_8">
<rect width="56" height="54" fill="white" transform="translate(4 5)"/>
</clipPath>
</defs>
</svg>
