<svg width="64" height="64" viewBox="0 0 64 64" fill="none" xmlns="http://www.w3.org/2000/svg">
<g clip-path="url(#clip0_34_10)">
<g clip-path="url(#clip1_34_10)">
<path d="M24.9727 58.2059C26.1189 58.207 27.2541 57.9823 28.3134 57.5445C29.3727 57.1068 30.3354 56.4647 31.1465 55.6548C31.9575 54.8449 32.6011 53.8832 33.0404 52.8245C33.4796 51.7658 33.706 50.631 33.7066 49.4848V39.9403L24.9727 40.7595C23.8109 40.7338 22.6557 40.9404 21.5749 41.3672C20.4941 41.7941 19.5094 42.4325 18.6786 43.2451C17.8479 44.0577 17.1878 45.028 16.7372 46.0991C16.2866 47.1702 16.0544 48.3206 16.0544 49.4827C16.0544 50.6447 16.2866 51.7951 16.7372 52.8662C17.1878 53.9374 17.8479 54.9077 18.6786 55.7202C19.5094 56.5328 20.4941 57.1713 21.5749 57.5981C22.6557 58.0249 23.8109 58.2316 24.9727 58.2059Z" fill="#0ACF83"/>
<path d="M16.2476 32.0341C16.2487 29.7208 17.1685 27.5025 18.8047 25.8671C20.4409 24.2318 22.6595 23.3131 24.9729 23.3131L33.7068 21.8965V40.7595H24.9729C22.6591 40.7583 20.4405 39.8387 18.8044 38.2026C17.1683 36.5666 16.2487 34.3479 16.2476 32.0341Z" fill="#A259FF"/>
<path d="M16.2476 14.5877C16.2543 12.2781 17.1766 10.0653 18.8122 8.43453C20.4478 6.80375 22.6632 5.88799 24.9729 5.888H35.2129L33.7068 23.3131H24.9729C22.6591 23.3119 20.4405 22.3923 18.8044 20.7562C17.1683 19.1202 16.2487 16.9015 16.2476 14.5877Z" fill="#F24E1E"/>
<path d="M33.7065 5.888H42.4191C44.6992 5.93843 46.869 6.87963 48.4637 8.51005C50.0585 10.1405 50.9515 12.3305 50.9515 14.6112C50.9515 16.8919 50.0585 19.0819 48.4637 20.7123C46.869 22.3428 44.6992 23.284 42.4191 23.3344H33.7065V5.888Z" fill="#FF7262"/>
<path d="M51.1404 32.0341C51.1412 33.7602 50.6301 35.4477 49.6717 36.8833C48.7132 38.3188 47.3506 39.4378 45.756 40.0987C44.1615 40.7597 42.4068 40.9328 40.7139 40.5963C39.0209 40.2598 37.4658 39.4287 36.2453 38.2081C35.0248 36.9876 34.1937 35.4325 33.8571 33.7396C33.5206 32.0466 33.6938 30.2919 34.3547 28.6974C35.0156 27.1029 36.1346 25.7402 37.5702 24.7818C39.0057 23.8233 40.6932 23.3122 42.4193 23.3131C44.7319 23.3142 46.9495 24.2334 48.5848 25.8687C50.2201 27.5039 51.1392 29.7215 51.1404 32.0341Z" fill="#1ABCFE"/>
</g>
</g>
<defs>
<clipPath id="clip0_34_10">
<rect width="64" height="64" fill="white"/>
</clipPath>
<clipPath id="clip1_34_10">
<rect width="64" height="64" fill="white"/>
</clipPath>
</defs>
</svg>
