<svg width="16" height="16" viewBox="0 0 16 16" fill="none" xmlns="http://www.w3.org/2000/svg">
<g clip-path="url(#clip0_1152_24)">
<path d="M7.9985 0.0644531C3.61584 0.0644531 0.0625 3.6178 0.0625 8.00045C0.0625 11.7191 2.62318 14.8307 6.07534 15.6918C6.03831 15.5846 6.0145 15.4603 6.0145 15.3062V13.9498C5.69243 13.9498 5.15278 13.9498 5.01721 13.9498C4.47425 13.9498 3.99148 13.7164 3.75737 13.2825C3.49746 12.8004 3.45249 12.063 2.80835 11.612C2.61723 11.4619 2.76272 11.2906 2.98295 11.3137C3.38967 11.4288 3.72695 11.7079 4.04439 12.1219C4.3605 12.5365 4.5093 12.6304 5.09987 12.6304C5.38623 12.6304 5.81478 12.6139 6.21819 12.5504C6.43511 11.9995 6.81008 11.4923 7.26839 11.2529C4.6257 10.9811 3.36454 9.66635 3.36454 7.88141C3.36454 7.11294 3.6919 6.3696 4.24808 5.74332C4.06555 5.12167 3.83607 3.85389 4.31818 3.37112C5.50726 3.37112 6.22612 4.14223 6.39873 4.35055C6.99129 4.14752 7.64204 4.03245 8.32586 4.03245C9.011 4.03245 9.6644 4.14752 10.2583 4.35188C10.4289 4.14488 11.1484 3.37112 12.3401 3.37112C12.8242 3.85455 12.5921 5.12762 12.4076 5.74795C12.9605 6.37291 13.2859 7.11426 13.2859 7.88141C13.2859 9.66503 12.0267 10.9791 9.38796 11.2522C10.1141 11.6312 10.6438 12.6959 10.6438 13.4981V15.3062C10.6438 15.375 10.6286 15.4246 10.6207 15.4834C13.7131 14.3995 15.9345 11.4632 15.9345 8.00045C15.9345 3.6178 12.3812 0.0644531 7.9985 0.0644531Z" fill="white"/>
</g>
<defs>
<clipPath id="clip0_1152_24">
<rect width="16" height="16" fill="white"/>
</clipPath>
</defs>
</svg>
