<svg width="64" height="64" viewBox="0 0 64 64" fill="none" xmlns="http://www.w3.org/2000/svg">
<g clip-path="url(#clip0_3_4)">
<path d="M54.5 6H9L13.5 52.5L32 58L51 52.5L54.5 6Z" fill="#DAB92D"/>
<path d="M33 15H49.5L48.3255 29.0937L47 45L33 48V28.1609V15Z" fill="white"/>
<path d="M31.875 58.875C31.783 58.875 31.692 58.862 31.604 58.838L12.979 53.588C12.581 53.475 12.292 53.128 12.254 52.716L8.004 6.091C7.979 5.811 8.072 5.533 8.262 5.326C8.451 5.118 8.719 5 9 5H54.875C55.155 5 55.422 5.117 55.611 5.324C55.8 5.53 55.895 5.806 55.871 6.086L51.871 52.711C51.836 53.127 51.544 53.478 51.142 53.589L32.142 58.839C32.054 58.863 31.965 58.875 31.875 58.875ZM14.184 51.85L31.878 56.837L49.939 51.847L53.785 7H10.096L14.184 51.85Z" fill="#DAB92D"/>
<path d="M32 10V54L47.25 50L51 10H32ZM47.375 28.625L46.25 43.375L33.75 46.5V41.25L42.75 38.75L42.875 34.375L33.625 35.75V16H48.25L47.875 21.375L38.25 21.5V29.625L47.375 28.625Z" fill="#FFD83B"/>
<path d="M16.625 42.875V37.375L25.625 39.875V16H30V46.625L16.625 42.875Z" fill="url(#paint0_linear_3_4)"/>
</g>
<defs>
<linearGradient id="paint0_linear_3_4" x1="23.313" y1="16" x2="23.313" y2="46.625" gradientUnits="userSpaceOnUse">
<stop stop-color="white"/>
<stop offset="1" stop-color="white"/>
</linearGradient>
<clipPath id="clip0_3_4">
<rect width="64" height="64" fill="white"/>
</clipPath>
</defs>
</svg>
