<svg width="64" height="64" viewBox="0 0 64 64" fill="none" xmlns="http://www.w3.org/2000/svg">
<path d="M22.6632 7L16.6 10L7 20.5L8.01053 33L12.0526 47.5L33.2737 57L40.5 56L47 52L51.4632 46.5L53.5 41.5L55.5 35.5L55 28.5L54 23L51.4632 18.5L49.5 15L46.5 12L40.5 8L36 6.5L31.2526 6L22.6632 7Z" fill="white"/>
<path d="M42.2727 30.8888C39.9639 37.2697 36.0867 44.0234 36.0867 44.0234H31.6791C32.6936 42.3711 40.3894 28.8887 38.5141 23.107C37.8515 21.0644 36.2117 18.5882 34.3377 15.8633L38.7467 15.9386C44.0589 23.7099 47.761 33.4906 50.9887 44.0234H46.8959C45.4876 39.2685 44.0289 34.6568 42.2727 30.8888ZM56 32C56 46.9117 44.3594 59 30 59C15.6406 59 4 46.9117 4 32C4 17.0883 15.6406 5 30 5C44.3594 5 56 17.0883 56 32ZM24.6818 48.6074C22.8077 45.8825 21.2651 43.2663 20.5054 41.2582C18.7186 36.5352 25.6431 23.2092 27.2786 20.7778C27.3579 20.6599 27.2727 20.5011 27.131 20.5018L23.0349 20.3632C23.0349 20.3632 18.9809 26.9902 16.7468 33.4764C14.9906 29.7084 13.5319 25.0967 12.1236 20.3418H8.03079C11.2585 30.8746 14.9605 40.7607 20.2727 48.532L24.6818 48.6074ZM36.9789 55.6492C37.8351 55.6542 38.8222 55.653 39.6551 55.6335C48.5076 51.7285 54.7163 42.6177 54.7163 32C54.7163 17.8245 43.6505 6.33304 30 6.33304C25.9083 6.33304 22.049 7.36577 18.6502 9.19353C32.8492 7.99622 37.9925 24.4531 29.4882 32.7857C26.4104 35.8013 24.5167 41.6768 26.3893 46.9365C27.9913 51.4362 31.9889 54.9232 36.9789 55.6492Z" fill="black"/>
</svg>
