<svg width="32" height="20" viewBox="0 0 32 20" fill="none" xmlns="http://www.w3.org/2000/svg">
<path d="M12.797 0.154V13.735C12.797 14.581 12.644 15.355 12.338 16.057C12.05 16.741 11.627 17.326 11.069 17.812C10.529 18.298 9.872 18.676 9.098 18.946C8.324 19.198 7.46 19.324 6.506 19.324C4.58 19.324 3.086 18.847 2.024 17.893C0.98 16.921 0.314 15.652 0.0260001 14.086L3.86 13.303C4.004 14.113 4.274 14.77 4.67 15.274C5.084 15.778 5.696 16.03 6.506 16.03C7.19 16.03 7.721 15.814 8.099 15.382C8.495 14.932 8.693 14.248 8.693 13.33V3.475H2.483V0.154H12.797ZM20.4275 19L15.4325 0.154H19.9415L22.1555 9.739L23.2625 15.166H23.4785L24.6125 9.739L26.8535 0.154H31.1465L26.1515 19H20.4275Z" fill="white"/>
</svg>
