<svg width="64" height="64" viewBox="0 0 64 64" fill="none" xmlns="http://www.w3.org/2000/svg">
<path d="M32.096 4.096C17.368 4.096 5.42932 16.0347 5.42932 30.7627C5.42932 45.4907 17.368 57.4293 32.096 57.4293C46.824 57.4293 58.7627 45.4907 58.7627 30.7627C58.7627 16.0347 46.824 4.096 32.096 4.096Z" fill="#3949AB"/>
<path d="M26.8693 54.4307C28.8133 53.7107 30.4586 51.2653 30.3559 49.6347C29.3733 50.816 28.3039 52.0747 27.2733 53.3653C27.0759 53.612 27.0319 53.9827 26.8693 54.4307ZM27.0666 49.2787C26.7906 49.14 26.5039 49.0213 26.2399 48.8613C22.4533 46.568 19.4906 43.508 17.6679 39.4307C16.9066 37.728 16.5946 35.932 16.8666 34.052C17.1306 32.224 17.8839 30.5907 18.9079 29.104C20.5026 26.7893 22.2053 24.5507 23.8479 22.2707C25.8986 19.4227 27.6666 16.4267 28.5186 12.9747C28.7346 12.1 28.8693 11.2053 29.0426 10.32C28.7413 11.12 28.5519 11.944 28.2773 12.736C27.3986 15.268 25.7733 17.2973 23.8613 19.1067C21.6733 21.1773 19.3746 23.1347 17.2479 25.264C12.8093 29.7107 12.4039 35.732 14.7293 40.7747C17.1279 45.9787 21.6893 48.276 26.9879 49.4053C27.0146 49.3627 27.0413 49.3213 27.0666 49.2787Z" fill="white"/>
<path d="M23.1933 28.6653C21.8533 30.924 21.424 33.3987 21.752 35.988C22.176 39.3387 23.6733 42.204 25.868 44.7227C26.812 45.8067 27.844 46.8 29.1387 47.468C29.3787 47.592 29.6507 47.6533 29.968 47.764C29.9107 46.748 29.4867 46.016 29.0733 45.2827C28.2987 43.908 27.4693 42.5613 26.744 41.16C25.2413 38.2547 24.6627 35.1827 25.2627 31.9293C25.5613 30.312 26.3507 28.8987 27.0987 27.4693C28.1947 25.3747 29.0427 23.1787 29.4453 20.8547C29.8987 18.236 30.24 15.5933 30.5293 12.9507C30.7093 11.312 30.7027 9.652 30.78 8.00267C30.76 8.00133 30.74 8 30.7187 8C30.5427 9.524 30.3973 11.0533 30.1867 12.572C29.6867 16.1693 28.6507 19.604 26.8333 22.7573C25.6787 24.7613 24.3733 26.6773 23.1933 28.6653Z" fill="white"/>
<path d="M49.3267 29.5827C48.1054 27.376 46.408 25.5587 44.416 24.0613C41.9094 22.176 39.324 20.396 36.736 18.624C35.2907 17.6333 34.2174 16.3747 33.6294 14.736C33.168 13.4507 32.804 12.1293 32.4067 10.86C32.4014 10.9333 32.388 11.06 32.3854 11.1867C32.316 15.74 31.68 20.2213 30.7854 24.6787C30.2227 27.4827 29.692 30.3027 29.344 33.14C28.812 37.492 29.6 41.6933 31.1134 45.788C31.42 46.6173 31.828 47.0667 32.716 47.2213C33.74 47.4 34.8387 47.6347 35.5347 48.4653C36.3227 49.4053 37.196 49.524 38.256 49.1693C38.464 49.1 38.684 49.0653 38.8894 48.9907C43.9347 47.1853 47.6214 43.868 49.728 38.9253C51.0654 35.7933 51.0094 32.624 49.3267 29.5827ZM45.6227 40.6867C43.964 43.0253 41.7987 44.8293 39.6414 46.3947C40.5507 44.932 41.632 43.416 42.4854 41.78C45.024 36.916 44.5667 32.2227 41.2907 27.8733C39.98 26.1347 38.412 24.5907 36.948 22.968C36.0374 21.9587 35.0854 20.988 34.192 19.9653C33.7374 19.444 33.3947 18.8347 33.308 18.0507C33.4374 18.1347 33.52 18.1747 33.5854 18.2333C36.6894 21.016 39.8454 23.744 42.8667 26.6147C44.0494 27.7387 45.0414 29.112 45.9267 30.496C48.1227 33.9253 47.98 37.3613 45.6227 40.6867ZM31.2534 51.2027C31.4574 52.0427 31.6934 52.876 31.9334 53.78C32.1774 52.9293 32.4467 52.152 32.6187 51.3533C32.7974 50.528 32.652 49.756 31.92 49.1493C31.356 49.744 31.06 50.3987 31.2534 51.2027ZM34.1067 50.6907C33.84 50.3573 33.6587 49.9573 33.396 49.5147C33.2814 51.4813 34.948 53.964 36.8094 54.6667C36.8454 54.044 36.66 53.6813 36.0934 53.0413C35.4147 52.2733 34.7467 51.492 34.1067 50.6907Z" fill="white"/>
</svg>
