<svg width="64" height="64" viewBox="0 0 64 64" fill="none" xmlns="http://www.w3.org/2000/svg">
<g clip-path="url(#clip0_5_52)">
<mask id="mask0_5_52" style="mask-type:luminance" maskUnits="userSpaceOnUse" x="0" y="12" width="64" height="36">
<path d="M0.899902 29.7406C0.899902 39.4929 14.8242 47.3988 32 47.3988C49.1757 47.3988 63.1001 39.4929 63.1001 29.7406C63.1001 19.9885 49.1757 12.0824 32 12.0824C14.8242 12.0824 0.899902 19.9885 0.899902 29.7406Z" fill="white"/>
</mask>
<g mask="url(#mask0_5_52)">
<path d="M0.899902 29.7406C0.899902 39.4929 14.8242 47.3988 32 47.3988C49.1757 47.3988 63.1001 39.4929 63.1001 29.7406C63.1001 19.9885 49.1757 12.0824 32 12.0824C14.8242 12.0824 0.899902 19.9885 0.899902 29.7406Z" fill="url(#paint0_radial_5_52)"/>
</g>
<mask id="mask1_5_52" style="mask-type:luminance" maskUnits="userSpaceOnUse" x="-1" y="10" width="66" height="40">
<path d="M-0.395996 10.0717H64.3958V49.4096H-0.395996V10.0717Z" fill="white"/>
</mask>
<g mask="url(#mask1_5_52)">
<path d="M32 46.0878C48.5049 46.0878 61.8852 38.7689 61.8852 29.7406C61.8852 20.7124 48.5049 13.3934 32 13.3934C15.495 13.3934 2.11475 20.7124 2.11475 29.7406C2.11475 38.7689 15.495 46.0878 32 46.0878Z" fill="#777BB3"/>
</g>
<mask id="mask2_5_52" style="mask-type:luminance" maskUnits="userSpaceOnUse" x="-1" y="10" width="66" height="40">
<path d="M-0.395996 10.0717H64.3958V49.4096H-0.395996V10.0717Z" fill="white"/>
</mask>
<g mask="url(#mask2_5_52)">
<path d="M17.7968 31.7674C19.1539 31.7674 20.1671 31.4973 20.8081 30.9648C21.4423 30.4377 21.8803 29.5246 22.1099 28.2508C22.324 27.0602 22.2424 26.2289 21.8676 25.7803C21.4844 25.3221 20.6558 25.0897 19.405 25.0897H17.2361L16.0338 31.7674H17.7968ZM10.7031 39.9932C10.6024 39.9932 10.5068 39.9446 10.4428 39.8606C10.3787 39.7767 10.3527 39.6662 10.3719 39.5595L13.5584 21.8634C13.5892 21.6923 13.7282 21.5687 13.8897 21.5687H20.7574C22.9158 21.5687 24.5223 22.2013 25.5321 23.449C26.5473 24.7034 26.8608 26.4567 26.4638 28.6602C26.3023 29.5579 26.0244 30.3917 25.638 31.1381C25.2512 31.8854 24.74 32.5769 24.1182 33.1937C23.374 33.9455 22.5317 34.4906 21.617 34.8114C20.7168 35.1279 19.5607 35.2884 18.1808 35.2884H15.3999L14.6058 39.6984C14.575 39.8696 14.4362 39.9932 14.2746 39.9932H10.7031Z" fill="black"/>
<path d="M17.5144 25.4539H19.4051C20.9147 25.4539 21.4391 25.8114 21.6173 26.0245C21.9129 26.3783 21.9687 27.1243 21.7787 28.1817C21.5652 29.3654 21.1695 30.2048 20.6024 30.6761C20.0217 31.1586 19.0777 31.4031 17.7969 31.4031H16.4432L17.5144 25.4539ZM20.7575 21.2044H13.8897C13.5666 21.2044 13.2889 21.4516 13.2272 21.7939L10.0407 39.49C10.0023 39.7035 10.0542 39.9244 10.1824 40.0923C10.3106 40.2602 10.5016 40.3573 10.7032 40.3573H14.2746C14.5978 40.3573 14.8755 40.1101 14.9371 39.7679L15.6782 35.6526H18.1809C19.5962 35.6526 20.7876 35.486 21.7218 35.1576C22.6826 34.8207 23.5665 34.2494 24.3488 33.4597C24.9958 32.8172 25.5288 32.096 25.9326 31.3159C26.3365 30.5356 26.6268 29.6655 26.7951 28.7296C27.213 26.4101 26.8736 24.5527 25.7863 23.2094C24.7096 21.879 23.0175 21.2044 20.7575 21.2044ZM15.6244 32.1316H17.7969C19.2368 32.1316 20.3093 31.8389 21.0141 31.2533C21.7189 30.6676 22.1943 29.6901 22.4413 28.3203C22.6776 27.0052 22.57 26.0771 22.1183 25.5364C21.6661 24.9958 20.7619 24.7254 19.4051 24.7254H16.958L15.6244 32.1316ZM20.7575 21.9329C22.8235 21.9329 24.3307 22.5181 25.2781 23.6886C26.2253 24.8592 26.5106 26.4931 26.1326 28.5907C25.977 29.4548 25.7139 30.2448 25.3435 30.9606C24.9727 31.6768 24.4884 32.3317 23.89 32.9255C23.1768 33.6459 22.3846 34.1592 21.5128 34.4649C20.6411 34.7715 19.5307 34.9241 18.1809 34.9241H15.1217L14.2746 39.6289H10.7032L13.8897 21.9329H20.7575Z" fill="white"/>
<path d="M34.6526 35.2884C34.5518 35.2884 34.4563 35.2398 34.3923 35.1558C34.3281 35.0719 34.3021 34.9616 34.3213 34.8547L35.7309 27.0249C35.865 26.2803 35.8319 25.7458 35.6378 25.52C35.5191 25.3819 35.1623 25.1504 34.1072 25.1504H31.5536L29.7814 34.9936C29.7506 35.1648 29.6116 35.2884 29.4501 35.2884H25.9068C25.806 35.2884 25.7105 35.2398 25.6464 35.1558C25.5823 35.0719 25.5563 34.9614 25.5755 34.8547L28.762 17.1586C28.7929 16.9876 28.9318 16.864 29.0933 16.864H32.6366C32.7374 16.864 32.8329 16.9125 32.897 16.9964C32.9611 17.0804 32.9871 17.1908 32.9679 17.2976L32.1989 21.5687H34.9461C37.0389 21.5687 38.458 21.967 39.2845 22.7862C40.127 23.6221 40.3899 24.9585 40.066 26.7588L38.5834 34.9936C38.5526 35.1648 38.4138 35.2884 38.2521 35.2884H34.6526Z" fill="black"/>
<path d="M32.6367 16.4997H29.0934C28.7702 16.4997 28.4925 16.7468 28.4308 17.0891L25.2443 34.7852C25.2059 34.9988 25.2578 35.2196 25.3861 35.3875C25.5143 35.5555 25.7053 35.6526 25.9069 35.6526H29.4502C29.7732 35.6526 30.0511 35.4054 30.1127 35.0631L31.8318 25.5146H34.1073C35.1605 25.5146 35.3816 25.7574 35.3904 25.7679C35.4543 25.842 35.5384 26.1856 35.3997 26.9554L33.9901 34.7852C33.9516 34.9988 34.0036 35.2196 34.1318 35.3875C34.2601 35.5555 34.4511 35.6526 34.6527 35.6526H38.2522C38.5753 35.6526 38.8531 35.4054 38.9147 35.0631L40.3972 26.8283C40.7451 24.8953 40.4475 23.4452 39.5129 22.5181C38.6212 21.6341 37.1273 21.2044 34.9461 21.2044H32.6082L33.2992 17.3672C33.3376 17.1536 33.2857 16.9326 33.1575 16.7648C33.0293 16.5969 32.8383 16.4997 32.6367 16.4997ZM32.6367 17.2281L31.7896 21.9329H34.9461C36.9323 21.9329 38.3023 22.3071 39.0562 23.0545C39.8102 23.8024 40.0361 25.0142 39.7348 26.6894L38.2522 34.9241H34.6527L36.0622 27.0944C36.2226 26.2037 36.1637 25.5962 35.8852 25.2722C35.6065 24.9483 35.0138 24.7861 34.1073 24.7861H31.2754L29.4502 34.9241H25.9069L29.0934 17.2281H32.6367Z" fill="white"/>
<path d="M45.6725 31.7674C47.0296 31.7674 48.0428 31.4973 48.6839 30.9648C49.318 30.4378 49.7561 29.5247 49.9858 28.2508C50.1998 27.0602 50.1183 26.2289 49.7434 25.7803C49.3601 25.3221 48.5315 25.0897 47.2807 25.0897H45.1119L43.9095 31.7674H45.6725ZM38.5789 39.9932C38.4782 39.9932 38.3826 39.9446 38.3186 39.8606C38.2545 39.7767 38.2284 39.6662 38.2476 39.5595L41.4341 21.8634C41.4651 21.6923 41.6039 21.5687 41.7655 21.5687H48.6331C50.7916 21.5687 52.398 22.2013 53.4079 23.449C54.4231 24.7032 54.7365 26.4566 54.3396 28.6602C54.1779 29.5579 53.9002 30.3917 53.5138 31.1381C53.1269 31.8854 52.6157 32.5769 51.994 33.1937C51.2498 33.9455 50.4075 34.4906 49.4927 34.8114C48.5925 35.1279 47.4364 35.2884 46.0565 35.2884H43.2755L42.4817 39.6984C42.4508 39.8696 42.312 39.9932 42.1503 39.9932H38.5789Z" fill="black"/>
<path d="M45.39 25.4539H47.2807C48.7904 25.4539 49.3148 25.8114 49.4929 26.0245C49.7887 26.3783 49.8445 27.1243 49.6544 28.1815C49.4409 29.3654 49.045 30.2048 48.478 30.6761C47.8973 31.1586 46.9533 31.4031 45.6725 31.4031H44.3189L45.39 25.4539ZM48.6331 21.2044H41.7654C41.4423 21.2044 41.1646 21.4516 41.103 21.7939L37.9165 39.49C37.878 39.7035 37.93 39.9244 38.0581 40.0923C38.1863 40.2602 38.3773 40.3573 38.5789 40.3573H42.1503C42.4734 40.3573 42.7512 40.1101 42.8129 39.7679L43.5538 35.6526H46.0565C47.4718 35.6526 48.6632 35.486 49.5974 35.1576C50.5582 34.8207 51.4423 34.2493 52.2247 33.4595C52.8717 32.8171 53.4044 32.096 53.8082 31.3159C54.2122 30.5356 54.5024 29.6655 54.6708 28.7296C55.0887 26.41 54.7492 24.5526 53.6619 23.2093C52.5852 21.879 50.8933 21.2044 48.6331 21.2044ZM43.5001 32.1316H45.6725C47.1124 32.1316 48.185 31.8389 48.8897 31.2533C49.5946 30.6676 50.0699 29.6901 50.3169 28.3203C50.5533 27.0052 50.4457 26.0771 49.9939 25.5364C49.5418 24.9958 48.6375 24.7254 47.2807 24.7254H44.8337L43.5001 32.1316ZM48.6331 21.9329C50.6991 21.9329 52.2063 22.5181 53.1537 23.6886C54.101 24.8592 54.3862 26.4931 54.0082 28.5907C53.8527 29.4548 53.5896 30.2448 53.2191 30.9606C52.8483 31.6768 52.364 32.3317 51.7656 32.9255C51.0524 33.6459 50.2602 34.1592 49.3884 34.4649C48.5167 34.7715 47.4063 34.9241 46.0565 34.9241H42.9973L42.1503 39.6289H38.5789L41.7654 21.9329H48.6331Z" fill="white"/>
</g>
</g>
<defs>
<radialGradient id="paint0_radial_5_52" cx="0" cy="0" r="1" gradientUnits="userSpaceOnUse" gradientTransform="translate(19.5725 18.2905) scale(40.8388 44.08)">
<stop stop-color="#AEB2D5"/>
<stop offset="0.3" stop-color="#AEB2D5"/>
<stop offset="0.75" stop-color="#484C89"/>
<stop offset="1" stop-color="#484C89"/>
</radialGradient>
<clipPath id="clip0_5_52">
<rect width="64" height="64" fill="white"/>
</clipPath>
</defs>
</svg>
