<svg width="64" height="64" viewBox="0 0 64 64" fill="none" xmlns="http://www.w3.org/2000/svg">
<path d="M32 58.1C46.4147 58.1 58.1 46.4146 58.1 32C58.1 17.5854 46.4147 5.9 32 5.9C17.5854 5.9 5.90002 17.5854 5.90002 32C5.90002 46.4146 17.5854 58.1 32 58.1Z" fill="#F47421"/>
<path d="M32.0001 44.6585C38.9912 44.6585 44.6586 38.9911 44.6586 32C44.6586 25.0089 38.9912 19.3415 32.0001 19.3415C25.009 19.3415 19.3416 25.0089 19.3416 32C19.3416 38.9911 25.009 44.6585 32.0001 44.6585Z" stroke="white" stroke-width="8.55"/>
<path d="M14.252 36.8938C16.9547 36.8938 19.1458 34.7028 19.1458 32C19.1458 29.2972 16.9547 27.1062 14.252 27.1062C11.5492 27.1062 9.35815 29.2972 9.35815 32C9.35815 34.7028 11.5492 36.8938 14.252 36.8938Z" fill="#F47421"/>
<path d="M41.86 32H47.66Z" fill="black"/>
<path d="M41.86 32H47.66" stroke="#F47421" stroke-width="3.2378"/>
<path d="M14.252 35.4843C16.1764 35.4843 17.7363 33.9243 17.7363 32C17.7363 30.0757 16.1764 28.5157 14.252 28.5157C12.3277 28.5157 10.7677 30.0757 10.7677 32C10.7677 33.9243 12.3277 35.4843 14.252 35.4843Z" fill="white"/>
<path d="M36.6359 14.1829C35.2845 16.5236 36.0864 19.5166 38.4271 20.8679C40.7678 22.2193 43.7608 21.4174 45.1122 19.0767C46.4636 16.736 45.6616 13.743 43.3209 12.3916C40.9802 11.0402 37.9872 11.8422 36.6359 14.1829Z" fill="#F47421"/>
<path d="M27.0701 40.539L24.1701 45.562Z" fill="black"/>
<path d="M27.0701 40.539L24.1701 45.562" stroke="#F47421" stroke-width="3.2378"/>
<path d="M37.8565 14.8876C36.8943 16.5541 37.4653 18.6851 39.1318 19.6473C40.7984 20.6095 42.9293 20.0385 43.8915 18.3719C44.8537 16.7054 44.2827 14.5744 42.6162 13.6123C40.9496 12.6501 38.8187 13.2211 37.8565 14.8876Z" fill="white"/>
<path d="M45.1122 44.9233C43.7608 42.5826 40.7678 41.7807 38.4271 43.1321C36.0864 44.4834 35.2845 47.4764 36.6359 49.8171C37.9872 52.1578 40.9803 52.9598 43.3209 51.6084C45.6616 50.257 46.4636 47.264 45.1122 44.9233Z" fill="#F47421"/>
<path d="M27.0701 23.461L24.1701 18.438Z" fill="black"/>
<path d="M27.0701 23.461L24.1701 18.438" stroke="#F47421" stroke-width="3.2378"/>
<path d="M43.8915 45.6281C42.9293 43.9615 40.7983 43.3905 39.1318 44.3527C37.4653 45.3149 36.8943 47.4459 37.8565 49.1124C38.8186 50.7789 40.9496 51.3499 42.6161 50.3877C44.2827 49.4256 44.8537 47.2946 43.8915 45.6281Z" fill="white"/>
</svg>
