<svg width="64" height="64" viewBox="0 0 64 64" fill="none" xmlns="http://www.w3.org/2000/svg">
<g clip-path="url(#clip0_34_44)">
<path d="M39.5477 31.9409L49.0525 15.667L53.6453 31.9409L49.0523 48.2109L39.5477 31.9409ZM34.9152 34.5837L44.4212 50.855L27.8658 46.6495L15.9056 34.5837H34.9152ZM44.4192 13.0221L34.9152 29.296H15.9056L27.8658 17.2294L44.4192 13.0221ZM57.9878 26.4025L52.1893 5.01232L30.5462 10.7449L27.3424 16.3301L20.8414 16.2839L5 31.9423L20.8414 47.5971H20.842L27.3403 47.5495L30.5487 53.1347L52.1893 58.8662L57.9876 37.4801L54.6945 31.9411L57.9876 26.403L57.9878 26.4025Z" fill="#222C37"/>
</g>
<defs>
<clipPath id="clip0_34_44">
<rect width="53" height="54" fill="white" transform="translate(5 5)"/>
</clipPath>
</defs>
</svg>
