<svg width="64" height="64" viewBox="0 0 64 64" fill="none" xmlns="http://www.w3.org/2000/svg">
<g clip-path="url(#clip0_34_7)">
<mask id="mask0_34_7" style="mask-type:alpha" maskUnits="userSpaceOnUse" x="6" y="6" width="52" height="52">
<path fill-rule="evenodd" clip-rule="evenodd" d="M42.8742 57.6449C43.6932 57.964 44.6271 57.9435 45.4537 57.5457L56.1596 52.3942C57.2846 51.8529 58 50.7144 58 49.4653V14.5349C58 13.2859 57.2846 12.1473 56.1597 11.606L45.4537 6.45435C44.3688 5.93233 43.0992 6.06019 42.147 6.75241C42.011 6.8513 41.8815 6.9617 41.7599 7.08337L21.2647 25.7816L12.3373 19.005C11.5063 18.3742 10.3439 18.4259 9.57205 19.128L6.70878 21.7325C5.76467 22.5913 5.76359 24.0766 6.70644 24.9368L14.4485 32.0001L6.70644 39.0633C5.76359 39.9234 5.76467 41.4088 6.70878 42.2676L9.57205 44.8721C10.3439 45.5742 11.5063 45.6259 12.3373 44.9951L21.2647 38.2185L41.7599 56.9167C42.0841 57.2411 42.4648 57.4854 42.8742 57.6449ZM45.0079 20.1954L29.4567 32.0001L45.0079 43.8046V20.1954Z" fill="white"/>
</mask>
<g mask="url(#mask0_34_7)">
<path d="M56.16 11.6142L45.4457 6.45547C44.2055 5.85835 42.7234 6.11023 41.7501 7.08352L6.67537 39.0634C5.73195 39.9236 5.73304 41.4089 6.67771 42.2677L9.54273 44.8723C10.315 45.5744 11.4782 45.6261 12.3097 44.9952L54.5478 12.9525C55.9648 11.8775 58.0001 12.8882 58.0001 14.6669V14.5425C58.0001 13.294 57.2849 12.1558 56.16 11.6142Z" fill="#0065A9"/>
<g filter="url(#filter0_d_34_7)">
<path d="M56.16 52.386L45.4457 57.5447C44.2055 58.142 42.7234 57.89 41.7501 56.9167L6.67537 24.9368C5.73195 24.0766 5.73304 22.5913 6.67771 21.7325L9.54273 19.1279C10.315 18.4258 11.4782 18.3741 12.3097 19.0049L54.5478 51.0477C55.9648 52.1226 58.0001 51.112 58.0001 49.3334V49.4578C58.0001 50.7062 57.2849 51.8443 56.16 52.386Z" fill="#007ACC"/>
</g>
<g filter="url(#filter1_d_34_7)">
<path d="M45.4461 57.5457C44.2055 58.1425 42.7234 57.89 41.75 56.9166C42.9493 58.116 45 57.2665 45 55.5705V8.42951C45 6.7334 42.9493 5.88398 41.75 7.08331C42.7234 6.10993 44.2055 5.85769 45.4461 6.45429L56.1585 11.606C57.2842 12.1473 58 13.2858 58 14.5349V49.4653C58 50.7143 57.2842 51.8529 56.1585 52.3942L45.4461 57.5457Z" fill="#1F9CF0"/>
</g>
<g style="mix-blend-mode:overlay" opacity="0.25">
<path fill-rule="evenodd" clip-rule="evenodd" d="M42.8427 57.6449C43.6617 57.9639 44.5956 57.9435 45.4222 57.5458L56.1281 52.3943C57.2531 51.853 57.9685 50.7144 57.9685 49.4653V14.5349C57.9685 13.2859 57.2531 12.1473 56.1282 11.606L45.4222 6.45435C44.3374 5.93233 43.0677 6.06019 42.1155 6.75241C41.9795 6.85129 41.85 6.9617 41.7284 7.08337L21.2331 25.7816L12.3058 19.005C11.4748 18.3742 10.3124 18.4259 9.54056 19.1279L6.67728 21.7325C5.73318 22.5914 5.7321 24.0766 6.67494 24.9368L14.417 32L6.67494 39.0633C5.7321 39.9235 5.73318 41.4088 6.67728 42.2675L9.54056 44.8721C10.3124 45.5742 11.4748 45.6259 12.3058 44.9951L21.2331 38.2185L41.7284 56.9167C42.0526 57.2411 42.4333 57.4854 42.8427 57.6449ZM44.9764 20.1955L29.4252 32L44.9764 43.8047V20.1955Z" fill="url(#paint0_linear_34_7)"/>
</g>
</g>
</g>
<defs>
<filter id="filter0_d_34_7" x="-2.36483" y="10.2311" width="68.6982" height="55.9678" filterUnits="userSpaceOnUse" color-interpolation-filters="sRGB">
<feFlood flood-opacity="0" result="BackgroundImageFix"/>
<feColorMatrix in="SourceAlpha" type="matrix" values="0 0 0 0 0 0 0 0 0 0 0 0 0 0 0 0 0 0 127 0" result="hardAlpha"/>
<feOffset/>
<feGaussianBlur stdDeviation="4.16667"/>
<feColorMatrix type="matrix" values="0 0 0 0 0 0 0 0 0 0 0 0 0 0 0 0 0 0 0.25 0"/>
<feBlend mode="overlay" in2="BackgroundImageFix" result="effect1_dropShadow_34_7"/>
<feBlend mode="normal" in="SourceGraphic" in2="effect1_dropShadow_34_7" result="shape"/>
</filter>
<filter id="filter1_d_34_7" x="33.4167" y="-2.19931" width="32.9167" height="68.3987" filterUnits="userSpaceOnUse" color-interpolation-filters="sRGB">
<feFlood flood-opacity="0" result="BackgroundImageFix"/>
<feColorMatrix in="SourceAlpha" type="matrix" values="0 0 0 0 0 0 0 0 0 0 0 0 0 0 0 0 0 0 127 0" result="hardAlpha"/>
<feOffset/>
<feGaussianBlur stdDeviation="4.16667"/>
<feColorMatrix type="matrix" values="0 0 0 0 0 0 0 0 0 0 0 0 0 0 0 0 0 0 0.25 0"/>
<feBlend mode="overlay" in2="BackgroundImageFix" result="effect1_dropShadow_34_7"/>
<feBlend mode="normal" in="SourceGraphic" in2="effect1_dropShadow_34_7" result="shape"/>
</filter>
<linearGradient id="paint0_linear_34_7" x1="31.9685" y1="6.13409" x2="31.9685" y2="57.866" gradientUnits="userSpaceOnUse">
<stop stop-color="white"/>
<stop offset="1" stop-color="white" stop-opacity="0"/>
</linearGradient>
<clipPath id="clip0_34_7">
<rect width="52" height="52" fill="white" transform="translate(6 6)"/>
</clipPath>
</defs>
</svg>
